# xmcd CD database file
#
# Track frame offsets:
#	150
#	15114
#	35077
#
# Disc length: 675 seconds
#
# Revision: 3
# Processed by: cddbd v1.5.1PL2 Copyright (c) Steve Scherf et al.
# Submitted via: CD2WAV32(JP) R3.22
#
DISCID=1602a103
DTITLE=佐野元春 - 星の下　路の上
DYEAR=2005
DGENRE=Rock
TTITLE0=ヒナギク月に照らされて -Daisy Moon
TTITLE1=裸の瞳 -Blossom
TTITLE2=星の下　路の上 -Boy's Life
EXTD=
EXTT0=
EXTT1=
EXTT2=
PLAYORDER=
